<svg xmlns="http://www.w3.org/2000/svg" viewBox="0 0 512 512" width="512" height="512">
  <!-- Concept 3 — The Unity Seal: agency roundel; four stars = BFP, PNP, CDRRMO, CHO -->
  <circle cx="256" cy="256" r="240" fill="#0E1C4A"/>
  <circle cx="256" cy="256" r="232" fill="#1B2F72" stroke="#D4A017" stroke-width="8"/>
  <circle cx="256" cy="256" r="196" fill="none" stroke="#D4A017" stroke-width="3" opacity="0.85"/>
  <polygon points="125.2,133.8 129.9,147.3 144.2,147.6 132.8,156.3 136.9,170.0 125.2,161.8 113.4,170.0 117.6,156.3 106.2,147.6 120.5,147.3" fill="#D4A017"/>
  <polygon points="206.1,77.7 210.8,91.2 225.1,91.5 213.7,100.2 217.8,113.9 206.1,105.7 194.3,113.9 198.5,100.2 187.1,91.5 201.4,91.2" fill="#D4A017"/>
  <polygon points="305.9,77.7 310.6,91.2 324.9,91.5 313.5,100.2 317.7,113.9 305.9,105.7 294.2,113.9 298.3,100.2 286.9,91.5 301.2,91.2" fill="#D4A017"/>
  <polygon points="386.8,133.8 391.5,147.3 405.8,147.6 394.4,156.3 398.6,170.0 386.8,161.8 375.1,170.0 379.2,156.3 367.8,147.6 382.1,147.3" fill="#D4A017"/>
  <rect x="40" y="216" width="432" height="84" fill="#0E1C4A"/>
  <line x1="40" y1="216" x2="472" y2="216" stroke="#D4A017" stroke-width="4"/>
  <line x1="40" y1="300" x2="472" y2="300" stroke="#D4A017" stroke-width="4"/>
  <text x="256" y="285" text-anchor="middle" font-family="Arial, Helvetica, sans-serif" font-size="76" font-weight="800" fill="#FFFFFF" letter-spacing="6">RVMS</text>
  <path d="M156 352 q100 56 200 0" fill="none" stroke="#D4A017" stroke-width="9" stroke-linecap="round"/>
  <path d="M186 392 q70 36 140 0" fill="none" stroke="#D4A017" stroke-width="6" stroke-linecap="round" opacity="0.6"/>
</svg>